<mxfile host="app.diagrams.net" agent="Mozilla/5.0 (Windows NT 10.0; Win64; x64) AppleWebKit/537.36 (KHTML, like Gecko) Chrome/132.0.0.0 Safari/537.36" version="26.0.14">
  <diagram name="Page-1" id="tX3nNqRqcCU1jk92epG6">
    <mxGraphModel dx="1290" dy="1743" grid="1" gridSize="10" guides="1" tooltips="1" connect="1" arrows="1" fold="1" page="1" pageScale="1" pageWidth="827" pageHeight="1169" math="0" shadow="0">
      <root>
        <mxCell id="0" />
        <mxCell id="1" parent="0" />
        <mxCell id="rppevgBpJnkYU8gySghs-47" style="edgeStyle=orthogonalEdgeStyle;rounded=0;orthogonalLoop=1;jettySize=auto;html=1;exitX=0.5;exitY=1;exitDx=0;exitDy=0;exitPerimeter=0;entryX=0.5;entryY=0;entryDx=0;entryDy=0;" edge="1" parent="1" source="rppevgBpJnkYU8gySghs-1" target="rppevgBpJnkYU8gySghs-26">
          <mxGeometry relative="1" as="geometry" />
        </mxCell>
        <mxCell id="rppevgBpJnkYU8gySghs-48" style="edgeStyle=orthogonalEdgeStyle;rounded=0;orthogonalLoop=1;jettySize=auto;html=1;exitX=0.5;exitY=1;exitDx=0;exitDy=0;exitPerimeter=0;entryX=0.5;entryY=0;entryDx=0;entryDy=0;" edge="1" parent="1" source="rppevgBpJnkYU8gySghs-1" target="rppevgBpJnkYU8gySghs-29">
          <mxGeometry relative="1" as="geometry" />
        </mxCell>
        <mxCell id="rppevgBpJnkYU8gySghs-1" value="Старт" style="strokeWidth=2;html=1;shape=mxgraph.flowchart.start_1;whiteSpace=wrap;" vertex="1" parent="1">
          <mxGeometry x="364" width="100" height="60" as="geometry" />
        </mxCell>
        <mxCell id="rppevgBpJnkYU8gySghs-50" style="edgeStyle=orthogonalEdgeStyle;rounded=0;orthogonalLoop=1;jettySize=auto;html=1;exitX=0.5;exitY=1;exitDx=0;exitDy=0;entryX=0.5;entryY=0;entryDx=0;entryDy=0;" edge="1" parent="1" source="rppevgBpJnkYU8gySghs-2" target="rppevgBpJnkYU8gySghs-4">
          <mxGeometry relative="1" as="geometry" />
        </mxCell>
        <mxCell id="rppevgBpJnkYU8gySghs-2" value="Купување формулари за заверка и запишување на семестар" style="rounded=1;whiteSpace=wrap;html=1;absoluteArcSize=1;arcSize=14;strokeWidth=2;" vertex="1" parent="1">
          <mxGeometry x="187" y="190" width="190" height="80" as="geometry" />
        </mxCell>
        <mxCell id="rppevgBpJnkYU8gySghs-62" style="edgeStyle=orthogonalEdgeStyle;rounded=0;orthogonalLoop=1;jettySize=auto;html=1;exitX=0.5;exitY=1;exitDx=0;exitDy=0;entryX=0.5;entryY=0;entryDx=0;entryDy=0;" edge="1" parent="1" source="rppevgBpJnkYU8gySghs-4" target="rppevgBpJnkYU8gySghs-59">
          <mxGeometry relative="1" as="geometry" />
        </mxCell>
        <mxCell id="rppevgBpJnkYU8gySghs-4" value="Пополнување на формулар" style="shape=parallelogram;html=1;strokeWidth=2;perimeter=parallelogramPerimeter;whiteSpace=wrap;rounded=1;arcSize=12;size=0.23;" vertex="1" parent="1">
          <mxGeometry x="172" y="340" width="220" height="60" as="geometry" />
        </mxCell>
        <mxCell id="rppevgBpJnkYU8gySghs-61" style="edgeStyle=orthogonalEdgeStyle;rounded=0;orthogonalLoop=1;jettySize=auto;html=1;exitX=0.5;exitY=1;exitDx=0;exitDy=0;entryX=0.5;entryY=0;entryDx=0;entryDy=0;" edge="1" parent="1" source="rppevgBpJnkYU8gySghs-6" target="rppevgBpJnkYU8gySghs-59">
          <mxGeometry relative="1" as="geometry" />
        </mxCell>
        <mxCell id="rppevgBpJnkYU8gySghs-6" value="Уплата" style="rounded=1;whiteSpace=wrap;html=1;absoluteArcSize=1;arcSize=14;strokeWidth=2;" vertex="1" parent="1">
          <mxGeometry x="505" y="430" width="90" height="40" as="geometry" />
        </mxCell>
        <mxCell id="rppevgBpJnkYU8gySghs-16" value="" style="edgeStyle=orthogonalEdgeStyle;rounded=0;orthogonalLoop=1;jettySize=auto;html=1;" edge="1" parent="1" source="rppevgBpJnkYU8gySghs-7" target="rppevgBpJnkYU8gySghs-8">
          <mxGeometry relative="1" as="geometry" />
        </mxCell>
        <mxCell id="rppevgBpJnkYU8gySghs-7" value="Доставување на формулари и уплатница" style="rounded=1;whiteSpace=wrap;html=1;absoluteArcSize=1;arcSize=14;strokeWidth=2;" vertex="1" parent="1">
          <mxGeometry x="352" y="630" width="165" height="60" as="geometry" />
        </mxCell>
        <mxCell id="rppevgBpJnkYU8gySghs-25" value="одобрено" style="edgeStyle=orthogonalEdgeStyle;rounded=0;orthogonalLoop=1;jettySize=auto;html=1;" edge="1" parent="1" source="rppevgBpJnkYU8gySghs-8" target="rppevgBpJnkYU8gySghs-24">
          <mxGeometry relative="1" as="geometry" />
        </mxCell>
        <mxCell id="rppevgBpJnkYU8gySghs-65" value="грешна уплата&lt;div&gt;&amp;nbsp;и рекламација&amp;nbsp;&lt;/div&gt;&lt;div&gt;на погрешна уплата&lt;/div&gt;" style="edgeStyle=orthogonalEdgeStyle;rounded=0;orthogonalLoop=1;jettySize=auto;html=1;exitX=1;exitY=0.5;exitDx=0;exitDy=0;entryX=1;entryY=0.25;entryDx=0;entryDy=0;" edge="1" parent="1" source="rppevgBpJnkYU8gySghs-8" target="rppevgBpJnkYU8gySghs-29">
          <mxGeometry relative="1" as="geometry">
            <Array as="points">
              <mxPoint x="770" y="770" />
              <mxPoint x="770" y="120" />
            </Array>
          </mxGeometry>
        </mxCell>
        <mxCell id="rppevgBpJnkYU8gySghs-66" value="грешка во формулар" style="edgeStyle=orthogonalEdgeStyle;rounded=0;orthogonalLoop=1;jettySize=auto;html=1;exitX=0;exitY=0.5;exitDx=0;exitDy=0;entryX=0;entryY=0.25;entryDx=0;entryDy=0;" edge="1" parent="1" source="rppevgBpJnkYU8gySghs-8" target="rppevgBpJnkYU8gySghs-26">
          <mxGeometry relative="1" as="geometry">
            <Array as="points">
              <mxPoint x="60" y="770" />
              <mxPoint x="60" y="118" />
            </Array>
          </mxGeometry>
        </mxCell>
        <mxCell id="rppevgBpJnkYU8gySghs-8" value="преглед во служба" style="rounded=1;whiteSpace=wrap;html=1;absoluteArcSize=1;arcSize=14;strokeWidth=2;" vertex="1" parent="1">
          <mxGeometry x="369.5" y="750" width="130" height="40" as="geometry" />
        </mxCell>
        <mxCell id="rppevgBpJnkYU8gySghs-24" value="Успешно запишан семестар" style="strokeWidth=2;html=1;shape=mxgraph.flowchart.start_1;whiteSpace=wrap;" vertex="1" parent="1">
          <mxGeometry x="369.5" y="830" width="124" height="60" as="geometry" />
        </mxCell>
        <mxCell id="rppevgBpJnkYU8gySghs-40" value="" style="edgeStyle=orthogonalEdgeStyle;rounded=0;orthogonalLoop=1;jettySize=auto;html=1;" edge="1" parent="1" source="rppevgBpJnkYU8gySghs-26" target="rppevgBpJnkYU8gySghs-2">
          <mxGeometry relative="1" as="geometry" />
        </mxCell>
        <mxCell id="rppevgBpJnkYU8gySghs-26" value="Одење во книжарница" style="rounded=1;whiteSpace=wrap;html=1;absoluteArcSize=1;arcSize=14;strokeWidth=2;" vertex="1" parent="1">
          <mxGeometry x="212" y="100" width="140" height="70" as="geometry" />
        </mxCell>
        <mxCell id="rppevgBpJnkYU8gySghs-49" style="edgeStyle=orthogonalEdgeStyle;rounded=0;orthogonalLoop=1;jettySize=auto;html=1;exitX=0.5;exitY=1;exitDx=0;exitDy=0;entryX=0.5;entryY=0;entryDx=0;entryDy=0;" edge="1" parent="1" source="rppevgBpJnkYU8gySghs-29" target="rppevgBpJnkYU8gySghs-30">
          <mxGeometry relative="1" as="geometry" />
        </mxCell>
        <mxCell id="rppevgBpJnkYU8gySghs-29" value="Одење во банка" style="rounded=1;whiteSpace=wrap;html=1;absoluteArcSize=1;arcSize=14;strokeWidth=2;" vertex="1" parent="1">
          <mxGeometry x="500" y="100" width="100" height="80" as="geometry" />
        </mxCell>
        <mxCell id="rppevgBpJnkYU8gySghs-52" style="edgeStyle=orthogonalEdgeStyle;rounded=0;orthogonalLoop=1;jettySize=auto;html=1;exitX=0.5;exitY=1;exitDx=0;exitDy=0;" edge="1" parent="1" source="rppevgBpJnkYU8gySghs-30" target="rppevgBpJnkYU8gySghs-51">
          <mxGeometry relative="1" as="geometry" />
        </mxCell>
        <mxCell id="rppevgBpJnkYU8gySghs-30" value="Купување уплатиници (ПП50 / ПП10)" style="rounded=1;whiteSpace=wrap;html=1;absoluteArcSize=1;arcSize=14;strokeWidth=2;" vertex="1" parent="1">
          <mxGeometry x="500" y="200" width="100" height="60" as="geometry" />
        </mxCell>
        <mxCell id="rppevgBpJnkYU8gySghs-53" value="" style="edgeStyle=orthogonalEdgeStyle;rounded=0;orthogonalLoop=1;jettySize=auto;html=1;" edge="1" parent="1" source="rppevgBpJnkYU8gySghs-51" target="rppevgBpJnkYU8gySghs-6">
          <mxGeometry relative="1" as="geometry" />
        </mxCell>
        <mxCell id="rppevgBpJnkYU8gySghs-51" value="Пополнување на уплатници" style="shape=parallelogram;html=1;strokeWidth=2;perimeter=parallelogramPerimeter;whiteSpace=wrap;rounded=1;arcSize=12;size=0.23;" vertex="1" parent="1">
          <mxGeometry x="440" y="340" width="220" height="60" as="geometry" />
        </mxCell>
        <mxCell id="rppevgBpJnkYU8gySghs-60" value="има формулари и уплатници" style="edgeStyle=orthogonalEdgeStyle;rounded=0;orthogonalLoop=1;jettySize=auto;html=1;" edge="1" parent="1" source="rppevgBpJnkYU8gySghs-59" target="rppevgBpJnkYU8gySghs-7">
          <mxGeometry relative="1" as="geometry" />
        </mxCell>
        <mxCell id="rppevgBpJnkYU8gySghs-63" value="нема уплатиници&lt;div&gt;&amp;nbsp;за упис на семестар&lt;/div&gt;" style="edgeStyle=orthogonalEdgeStyle;rounded=0;orthogonalLoop=1;jettySize=auto;html=1;exitX=1;exitY=0.5;exitDx=0;exitDy=0;entryX=1;entryY=0.75;entryDx=0;entryDy=0;" edge="1" parent="1" source="rppevgBpJnkYU8gySghs-59" target="rppevgBpJnkYU8gySghs-29">
          <mxGeometry x="0.2313" relative="1" as="geometry">
            <Array as="points">
              <mxPoint x="710" y="550" />
              <mxPoint x="710" y="160" />
            </Array>
            <mxPoint as="offset" />
          </mxGeometry>
        </mxCell>
        <mxCell id="rppevgBpJnkYU8gySghs-64" value="нема формулари&amp;nbsp;&lt;div&gt;за упис на семестар&lt;/div&gt;" style="edgeStyle=orthogonalEdgeStyle;rounded=0;orthogonalLoop=1;jettySize=auto;html=1;exitX=0;exitY=0.5;exitDx=0;exitDy=0;" edge="1" parent="1" source="rppevgBpJnkYU8gySghs-59">
          <mxGeometry x="0.2934" relative="1" as="geometry">
            <mxPoint x="210" y="160" as="targetPoint" />
            <Array as="points">
              <mxPoint x="160" y="550" />
              <mxPoint x="160" y="160" />
            </Array>
            <mxPoint y="1" as="offset" />
          </mxGeometry>
        </mxCell>
        <mxCell id="rppevgBpJnkYU8gySghs-59" value="Проверка за набавување на потребни документи за запишување на семестар" style="rounded=1;whiteSpace=wrap;html=1;absoluteArcSize=1;arcSize=14;strokeWidth=2;" vertex="1" parent="1">
          <mxGeometry x="335.5" y="510" width="198" height="80" as="geometry" />
        </mxCell>
      </root>
    </mxGraphModel>
  </diagram>
</mxfile>
